<svg width="247" height="16" viewBox="0 0 247 16" fill="none" xmlns="http://www.w3.org/2000/svg">
<g id="logo">
<path id="Union" fill-rule="evenodd" clip-rule="evenodd" d="M6.65905 14.9332L0 0H4.12144L9.06371 11.0871L14.0117 0H18.1332L11.4741 14.9332H6.65905ZM33.8443 14.9332L40.5331 0H36.3933L31.4231 11.0871L26.4588 0H21.6222L14.9333 14.9332H19.0732L24.0434 3.84609L29.0077 14.9332H33.8443Z" fill="#00C98D"/>
<path id="Shape" fill-rule="evenodd" clip-rule="evenodd" d="M65.5752 15.7189L71.5315 0.257812H67.7773L63.5077 12.1523L59.2205 0.257812H55.4663L61.4461 15.7189H65.5752ZM86.3029 15.7189H82.5487L81.5999 13.101H74.9641L73.9919 15.7189H70.2377L76.2175 0.257812H80.3172L86.2736 15.7189H86.3029ZM80.6921 10.2019L78.2791 3.54894L75.8602 10.2019H80.6921ZM97.577 15.7189V12.8199H91.0349V0.257812H87.7434V15.7189H97.577ZM106.291 16C110.977 16 113.273 13.3763 113.273 9.55788V0.257812H109.911V9.4349C109.911 11.5959 108.681 13.0776 106.291 13.0776C103.902 13.0776 102.654 11.5959 102.654 9.4349V0.257812H99.3158V9.55203C99.3158 13.3587 101.588 15.9941 106.291 15.9941V16ZM127.259 15.7189V12.8199H119.604V9.30606H127.095V6.44224H119.604V3.15091H127.259V0.257812H116.313V15.7189H127.259ZM149.609 15.7189V0.257812H146.317V9.95612L139.154 0.257812H135.769V15.7189H139.06V5.63405L146.434 15.7189H149.609ZM163.618 15.7189V12.8199H155.963V9.30606H163.454V6.44224H155.963V3.15091H163.618V0.257812H152.672V15.7189H163.618ZM173.075 15.7189V3.15091H177.573V0.257812H165.238V3.15091H169.76V15.7189H173.075ZM195.014 15.7189L199.436 0.257812H195.723L192.994 11.432L190.065 0.257812H187.494L184.566 11.432L181.866 0.257812H178.176L182.604 15.7189H186.118L188.806 5.10111L191.524 15.7189H195.014ZM207.836 15.9999C212.522 15.9999 215.93 12.6617 215.93 7.99994C215.93 3.33819 212.522 0 207.836 0C203.151 0 199.766 3.33819 199.766 7.99994C199.766 12.6617 203.174 15.9999 207.836 15.9999ZM207.838 13.0721C204.985 13.0721 203.152 10.87 203.152 7.99449C203.152 5.11897 204.985 2.91693 207.838 2.91693C210.69 2.91693 212.523 5.09554 212.523 7.99449C212.523 10.8934 210.666 13.0721 207.838 13.0721ZM230.772 15.713L227.293 9.85656C228.962 9.45832 230.678 8.00006 230.678 5.26509C230.678 2.34272 228.722 0.257812 225.483 0.257812H218.25V15.7189H221.542V10.2255H223.955L226.965 15.7189L230.772 15.713ZM224.997 7.32112H221.542V3.15131H224.997C226.321 3.15131 227.34 3.94193 227.34 5.24207C227.34 6.54221 226.345 7.32697 224.997 7.32697V7.32112ZM246.399 15.713L239.84 7.51398L245.983 0.257812H241.925L236.454 7.16259V0.257812H233.163V15.7189H236.454V10.9693L237.661 9.5286L242.346 15.7189L246.399 15.713Z" fill="white"/>
</g>
</svg>
